<svg id="Layer_1" data-name="Layer 1" xmlns="http://www.w3.org/2000/svg" viewBox="0 0 1080 1080"><title>Catch_Logotipo_RGB</title><path d="M558.19,638.6q-34.56,0-34.56-39.12,0-11,1.07-42.06.52-10.45.8-21.31t.8-21.56l-15.53-.27v-6.7h18l28.67-41h1.34v41h40.72l.27,1.07-.27,5.63H558.73q-.54,39.93-.54,76.36,0,12.6,3.75,18T574.27,614a19.47,19.47,0,0,0,11.52-3.22c3-2.14,3.54-1.68,5.77-7s4.24-12.63,6-22.1l1.88.26c-1.26,20.19-3.15,31.21-9.93,41.39S572.3,638.6,558.19,638.6Z"/><path d="M855.53,590.64q0,19.29.94,27.73t3.08,11.39q2.15,3,7.5,5.09l6.7,2.14v1.61h-70.2V637l6.43-2.14c3.76-1.43,6.34-3.12,7.77-5.09s2.46-5.76,3.09-11.39.93-14.87.93-27.73V553.13q0-9.92-3.75-14.74t-12.59-4.82a74.58,74.58,0,0,0-13.8,1.34c-4.73.9-9.24,1.87-13.53,3v52.78q0,19.29.8,27.73t3,11.39q2.14,3,7.77,5.09l6.7,2.14v1.61h-70.2V637l6.43-2.14q5.36-2.15,7.64-5.09t3.08-11.39q.79-8.45.8-27.73V507.85q.27-16.89-.94-24.79c-.8-5.26-2.1-8.93-3.88-11s-4.74-3.62-8.84-4.69l-3.49-.8V465l50.38-23.31,1.07-.27q-.27,8-.27,16.75v63.09l-.54,13.13h1.08q14.46-13.92,26.92-20.49t23.72-6.57q13.92,0,20.09,8.17t6.16,24.79Z"/><path d="M291.48,442.87c43.49,0,66.71,15.28,76.7,50.25l-41.73,20c-2.65-39.68-7.64-65.54-34.68-65.54-18.52,0-37.62,26.45-37.62,87.58,0,46.73,21.46,76.41,45.85,85.23a43.24,43.24,0,0,0,15.87,2.94c21.16,0,41.15-15.58,48.49-48.5h6.47c-10,53.49-45.26,63.78-80.82,63.78-41.74,0-83.76-37.33-83.76-98.16C206.25,472,248.86,442.87,291.48,442.87Z"/><path d="M460.46,606c-6.77,13.83-15.88,29.71-29.71,32.06-14.41,2.35-45.29-1.76-43.23-33.82,2.35-35.3,41.17-37.94,72.64-44.71l-.29-16.18c-.29-10.58.88-35.88-18.53-35.88-16.47,0-30.59,28.53-31.47,48.83L390.16,521c9.42-12.35,27.36-18.23,45.59-18.23,51.77,0,64.41,19.7,64.41,41.17v73.53a21.28,21.28,0,0,0,7.06,15l1.77,1.47H485.16c-14.7,0-24.7-10-24.7-24.7Zm-29.71-3.23c1.18,7.35,6.77,10.58,12.94,10.58A16.7,16.7,0,0,0,460.46,596l-.3-33.23C434,568.34,428.11,588.34,430.75,602.76Z"/><path d="M670.49,503.29c30.07,0,46.12,10.57,53,34.74l-28.85,13.82c-1.83-27.43-5.28-45.31-24-45.31-12.8,0-26,18.29-26,60.55,0,32.3,14.83,52.82,31.69,58.91a29.82,29.82,0,0,0,11,2c14.62,0,28.44-10.77,33.52-33.53h4.47c-6.91,37-31.29,44.09-55.87,44.09-28.85,0-57.9-25.8-57.9-67.86C611.58,523.41,641,503.29,670.49,503.29Z"/></svg>