<svg width="34" height="41" viewBox="0 0 34 41" fill="none" xmlns="http://www.w3.org/2000/svg">
<g clip-path="url(#clip0_3916_5637)">
<path d="M17.0007 6.67556C18.8259 6.67556 20.3055 5.18118 20.3055 3.33778C20.3055 1.49437 18.8259 0 17.0007 0C15.1754 0 13.6958 1.49437 13.6958 3.33778C13.6958 5.18118 15.1754 6.67556 17.0007 6.67556Z" fill="#FCF538"/>
<path d="M17.0007 40.9998C18.8259 40.9998 20.3055 39.5054 20.3055 37.662C20.3055 35.8186 18.8259 34.3242 17.0007 34.3242C15.1754 34.3242 13.6958 35.8186 13.6958 37.662C13.6958 39.5054 15.1754 40.9998 17.0007 40.9998Z" fill="#FCF538"/>
<path d="M3.30487 16.0164C5.13009 16.0164 6.60973 14.522 6.60973 12.6786C6.60973 10.8352 5.13009 9.34082 3.30487 9.34082C1.47964 9.34082 0 10.8352 0 12.6786C0 14.522 1.47964 16.0164 3.30487 16.0164Z" fill="#FCF538"/>
<path d="M3.30487 31.6594C5.13009 31.6594 6.60973 30.1651 6.60973 28.3217C6.60973 26.4783 5.13009 24.9839 3.30487 24.9839C1.47964 24.9839 0 26.4783 0 28.3217C0 30.1651 1.47964 31.6594 3.30487 31.6594Z" fill="#FCF538"/>
<path d="M30.6951 16.0164C32.5204 16.0164 34 14.522 34 12.6786C34 10.8352 32.5204 9.34082 30.6951 9.34082C28.8699 9.34082 27.3903 10.8352 27.3903 12.6786C27.3903 14.522 28.8699 16.0164 30.6951 16.0164Z" fill="#FCF538"/>
<path d="M30.6951 31.6594C32.5204 31.6594 34 30.1651 34 28.3217C34 26.4783 32.5204 24.9839 30.6951 24.9839C28.8699 24.9839 27.3903 26.4783 27.3903 28.3217C27.3903 30.1651 28.8699 31.6594 30.6951 31.6594Z" fill="#FCF538"/>
</g>
<defs>
<clipPath id="clip0_3916_5637">
<rect width="34" height="41" fill="white"/>
</clipPath>
</defs>
</svg>
